<?xml version="1.0"?><svg width="640" height="480" xmlns="http://www.w3.org/2000/svg">
 <!-- Created with SVG-edit - http://svg-edit.googlecode.com/ -->
 <title>New Zealand</title>

 <g>
  <title>Layer 1</title>
  <path fill="#003f7f" d="m215.883896,25.507727l0,0.80299l3.747528,0l-3.747528,-0.80299m26.233337,8.832693l2.998062,5.620827l1.499176,0c0.826706,-3.975853 -0.915192,-5.328159 -4.497238,-5.620827m-7.495255,4.014851c5.526306,4.170544 19.394012,16.687763 11.992493,23.286205c1.936966,4.475033 5.946732,10.615307 10.493317,12.044643l8.244751,-8.029793l-8.244751,12.044647c7.295959,5.505943 12.780121,13.585403 18.113068,21.106895c0.642395,0.905769 4.887665,8.401512 6.06076,4.389069c0.792877,-2.710861 -6.080933,-12.230026 -6.934723,-15.860283c4.729462,4.564072 4.611145,12.43 11.992371,13.650528l-3.74762,-6.42382l1.499084,-1.60598l3.74765,1.60598l-0.749603,-3.211861l2.248535,2.408875l2.998169,0l0,1.605972c-2.555817,0.211121 -3.673279,0.545189 -4.497101,3.211861l3.747528,0.802994l0,0.802986l-3.747528,4.817841l2.998047,7.226707c-2.755066,-3.452751 -4.548035,-6.103287 -8.994263,-6.423714c1.022278,4.026077 4.141144,7.005882 6.281067,10.43866c3.759552,6.028572 6.065186,21.103638 14.705597,20.074249l-2.998108,3.211868c1.574097,5.910706 2.1698,13.327026 8.994263,12.044647c-1.781555,1.37468 -5.469147,1.935135 -6.721558,3.695282c-2.052246,2.884232 0.627991,4.718231 2.97406,4.334427l0.749451,4.817825l-5.996216,0.802994c-0.585419,7.681213 -1.821289,21.440186 -8.248505,25.942413c-5.888214,4.125702 -23.334961,3.169312 -23.079376,14.203003c0.193451,8.342072 10.313507,8.42717 15.5849,10.424179c3.878845,1.470154 6.083099,5.385498 9.749878,7.297394c4.028687,2.101425 8.82196,1.544128 12.7388,3.74025c11.335144,6.353119 11.45282,19.02478 4.415588,29.128632c-4.150177,5.958832 -9.636658,9.99057 -13.879822,15.626587c-3.661346,4.86203 4.647949,5.242676 7.215698,5.250732c0.972229,5.977295 4.619385,1.163483 8.134705,2.308502c2.674347,0.871185 2.813019,4.892456 3.108185,7.327087c17.581635,-0.168671 28.704651,-18.07486 37.925293,-31.086243c4.785767,-6.753754 11.232452,-12.127258 16.026489,-18.834518c2.494324,-3.490509 2.480011,-7.375305 4.37262,-11.070602c1.584564,-3.092941 4.415375,-5.037018 6.134827,-8.064178l-7.495209,-0.802994c-1.124359,-17.075241 15.727386,-20.927078 28.481903,-17.665466l0.749512,6.423813l5.996185,-7.2267c-3.742371,-3.558807 -1.511658,-7.96315 -1.499084,-12.847534l11.992493,-6.423828c-1.720856,-10.5672 2.159454,-21.12381 8.244751,-28.907043l0,-0.802994c-8.504822,-6.580368 -20.394531,-7.995209 -28.939087,-0.330795c-3.47937,3.120331 -4.546509,7.376938 -9.286713,9.149948c-11.744995,4.393005 -23.687134,-5.316635 -34.478119,-8.850464c-5.252563,-1.719986 -8.704102,0.301987 -12.742004,-4.786514l7.49527,3.211945c-1.739563,-3.995621 -5.439972,-6.423035 -7.083771,-10.43866c-2.461395,-6.017517 -0.018616,-15.199448 -5.658203,-19.271362l-2.998047,2.408974l0,-0.802986l4.497101,-2.408966c-1.800262,-3.056931 -4.305847,-3.174118 -7.495239,-3.211868c-0.816833,-5.974968 -4.653015,-7.113556 -9.743805,-7.226707c0.511932,3.377159 3.126373,4.326347 4.062531,7.310173c0.821442,2.621727 -1.128876,5.143944 -0.142303,7.809746c0.948029,2.563904 4.014374,4.848389 3.044342,7.982353c-0.587585,1.89653 -2.854858,2.639389 -4.264008,1.27037c-1.981537,-1.926407 -0.85141,-5.410477 -3.243103,-7.254951c-1.975769,-1.523949 -4.741455,-0.870415 -6.952759,-1.796249c-6.981018,-2.923615 -16.346222,-11.794052 -8.244751,-19.336388c-1.591095,-4.400215 -5.163452,-11.258469 -9.743866,-12.044556c-0.035034,-4.12809 -0.18573,-6.858162 -4.497101,-7.226707l0,-0.802994l4.497101,-0.802986l-1.498932,-3.211861l3.747528,-0.802986c-1.944275,-7.718979 -7.796417,-15.169777 -14.990448,-12.044647l-2.998138,-3.211864l0,-0.802986l2.998138,0c-1.93219,-6.409889 -13.271698,-8.280872 -18.73819,-9.635677l0,2.408966l-4.497223,0l2.998169,-2.408966c-1.919312,-6.703426 -5.630447,0.221012 -7.495285,3.211952c-0.851395,-5.119629 -16.221817,-25.557724 -19.487656,-16.86248m60.711639,43.36055l0,3.211861l3.747559,0l-3.747559,-3.211861m32.229553,21.680229c0.42215,-2.843307 -0.728546,-13.758873 -5.786987,-11.100273c-6.0495,3.179016 3.230469,10.041214 5.786987,11.100273m-16.489502,-7.226715c1.427765,2.703568 2.634674,2.757355 5.246613,1.605988l-5.246613,-1.605988m-2.998138,9.635689l-1.499115,-3.21196c-3.182373,1.959251 -1.734375,4.022148 1.499115,3.21196m25.483856,4.014839c1.214264,2.361626 2.013214,2.809608 4.497101,2.408875l-1.498962,-3.211853l-2.998138,0.802979m-23.984802,6.42382l5.246582,4.817749l2.248596,-5.620735l-7.495178,0.802986m46.470612,28.906952l-0.749603,0.802994l0,1.605957l0.749603,0.802994l1.498962,0l0.749573,-0.802994l0,-1.605957l-0.749573,-0.802994l-1.498962,0m16.489594,9.635666l3.747559,0.802994l-3.747559,-0.802994m-142.409943,92.341843l0.749481,3.211868c-4.945969,-0.768417 -14.970169,5.846451 -16.251114,11.244827c-1.052338,4.435638 1.331955,9.378723 -0.044952,13.615936c-1.457001,4.482239 -6.993011,10.339935 -10.687531,12.76004c-3.100052,2.030823 -6.846924,1.328979 -9.496414,4.252686c-4.153152,4.584137 -4.003326,11.218292 -6.266861,16.743378c-3.197464,7.805115 -8.767288,14.552338 -14.966629,19.851318c-4.453522,3.806793 -10.837372,4.447662 -15.739929,7.66507c-7.48999,4.915833 -14.199661,12.959259 -21.765335,17.197998c-4.633698,2.596161 -10.239456,3.080383 -14.961433,5.730804c-4.506157,2.530304 -8.587189,6.991516 -13.520569,8.567017c-3.841286,1.226868 -8.202209,-0.66803 -11.922661,0.892029c-3.655624,1.532227 -5.980545,6.316162 -9.78447,8.348511l0.749489,2.408875c-6.520149,0.469116 -9.370483,6.126038 -14.243935,9.930542c-3.339897,2.607117 -7.484795,3.73938 -8.241776,8.537811c-8.821838,0.686768 -18.746822,14.10025 -5.246712,16.059479l0,0.803009l-5.246708,0l1.499077,3.211853l-11.992397,-4.014862l-3.747639,10.438599l9.74374,-1.605865l0,0.802979c-2.974422,1.203613 -8.467793,4.510376 -2.248562,5.620697l0,0.803009l-14.990446,1.605988l0.749487,8.029694l5.246712,-1.605865l-1.499073,4.014832l4.497219,0c-5.203197,8.395874 11.139648,5.277924 15.740028,6.280823c4.904289,1.068848 7.540226,-3.732208 11.995472,-2.934662c4.569061,0.818054 4.557922,6.025391 8.28817,7.381622c2.833229,1.030151 6.030777,-1.079224 8.936615,-1.016693c3.017746,0.065887 6.038177,1.703186 9.005486,2.333466l0,1.605957l-4.497124,1.605896l0,1.605988c6.803513,2.403412 12.650635,0.986053 19.487671,0c1.335785,6.558868 9.669769,3.761963 14.241043,2.902954c12.448845,-2.339905 21.961769,-7.645294 31.255989,-16.950836c1.882889,-1.884521 2.580505,-4.61142 4.764709,-6.244781c4.764725,-3.56601 13.61586,0.193451 14.197449,-7.811401l-5.246704,1.605988c4.144897,-10.159912 9.684753,-22.198029 17.988586,-28.907043c0.178467,-7.374329 0.31044,-16.788513 4.398392,-23.024261c2.669067,-4.072662 7.991364,-5.595947 12.091232,-7.252472c7.591309,-3.067383 14.30098,-7.935852 22.485809,-9.06897c0.543457,-9.62912 12.644577,1.33963 17.238998,1.605988l0,-4.817841l0.749588,0l1.498978,4.817841l0.749588,0c9.363937,-8.266571 -2.680984,-10.733246 -8.994247,-12.044556c0.173279,-2.673004 -0.723938,-5.405548 -0.087692,-8.029694c2.361893,-9.740753 11.937637,-7.401703 17.631943,-13.347687c3.847137,-4.015686 5.272156,-10.455566 8.841339,-14.787567c8.003387,-9.71521 18.161682,-16.795746 24.582153,-28.072815l-4.497253,-2.408997l-2.906586,-8.797241l11.151367,-10.473907l-0.749481,-0.803009l-18.738098,6.423737l0,-3.211884l-8.244873,-4.81781c-3.469452,1.540863 -11.292252,9.124969 -14.879395,7.783997c-4.07901,-1.525696 -2.13475,-12.947906 -2.359589,-16.616699c-2.740356,-0.777237 -5.730057,0.990082 -8.232758,-0.154175c-2.956268,-1.352203 -4.811218,-5.78862 -1.35817,-7.821732c2.173645,-1.279114 5.698639,-0.106812 8.091751,-0.053802l0,-1.605972l-14.990448,0m38.975342,14.453522c4.404327,-0.486603 7.187988,-2.509338 8.244751,-7.226807c-5.28476,0.121307 -7.154205,1.677429 -8.244751,7.226807m-2.998169,2.408875l0,1.605988c3.073944,1.246155 5.491943,1.443726 7.4953,-1.605988l-3.747559,-1.605896l-3.747742,1.605896m5.996307,4.817841c4.84494,7.197113 13.074707,-0.411957 17.238983,-4.014862c-5.119019,-3.659943 -12.979401,0.771667 -17.238983,4.014862m-226.356812,139.717163l-0.749485,4.014832l4.497124,1.605957l-0.749584,-5.620789l-2.998055,0m-12.741879,21.680206l8.994247,0c-0.472092,-6.49353 -8.516682,-6.415741 -8.994247,0z" id="path2703"/>
 </g>
</svg>